<mxfile host="app.diagrams.net" agent="Mozilla/5.0 (Windows NT 10.0; Win64; x64) AppleWebKit/537.36 (KHTML, like Gecko) Chrome/136.0.0.0 Safari/537.36" version="26.2.14">
  <diagram name="Página-1" id="0w80AyjQbpyl8An1bYWf">
    <mxGraphModel dx="2564" dy="878" grid="1" gridSize="10" guides="1" tooltips="1" connect="1" arrows="1" fold="1" page="1" pageScale="1" pageWidth="827" pageHeight="1169" math="0" shadow="0">
      <root>
        <mxCell id="0" />
        <mxCell id="1" parent="0" />
        <mxCell id="XxkqTc_sXAHZY6f8xNma-3" value="&lt;font style=&quot;font-size: 35px;&quot;&gt;Diagrama de Fluxo de Dados para o iFood&lt;/font&gt;" style="text;strokeColor=none;fillColor=none;html=1;fontSize=24;fontStyle=1;verticalAlign=middle;align=center;" vertex="1" parent="1">
          <mxGeometry x="-348" y="10" width="736" height="100" as="geometry" />
        </mxCell>
        <mxCell id="XxkqTc_sXAHZY6f8xNma-7" value="Processo 1" style="swimlane;fontStyle=1;align=center;verticalAlign=top;childLayout=stackLayout;horizontal=1;startSize=26;horizontalStack=0;resizeParent=1;resizeParentMax=0;resizeLast=0;collapsible=1;marginBottom=0;whiteSpace=wrap;html=1;rounded=1;" vertex="1" parent="1">
          <mxGeometry x="-210" y="263" width="110" height="114" as="geometry">
            <mxRectangle x="180" y="533" width="100" height="30" as="alternateBounds" />
          </mxGeometry>
        </mxCell>
        <mxCell id="XxkqTc_sXAHZY6f8xNma-8" value="&lt;span&gt;Realizar&lt;/span&gt;&lt;div&gt;&lt;span&gt;Cadastro como&lt;/span&gt;&lt;/div&gt;&lt;div&gt;Cliente&lt;/div&gt;" style="text;strokeColor=none;fillColor=none;align=center;verticalAlign=top;spacingLeft=4;spacingRight=4;overflow=hidden;rotatable=0;points=[[0,0.5],[1,0.5]];portConstraint=eastwest;whiteSpace=wrap;html=1;" vertex="1" parent="XxkqTc_sXAHZY6f8xNma-7">
          <mxGeometry y="26" width="110" height="54" as="geometry" />
        </mxCell>
        <mxCell id="XxkqTc_sXAHZY6f8xNma-9" value="" style="line;strokeWidth=1;fillColor=none;align=left;verticalAlign=middle;spacingTop=-1;spacingLeft=3;spacingRight=3;rotatable=0;labelPosition=right;points=[];portConstraint=eastwest;strokeColor=inherit;" vertex="1" parent="XxkqTc_sXAHZY6f8xNma-7">
          <mxGeometry y="80" width="110" height="8" as="geometry" />
        </mxCell>
        <mxCell id="XxkqTc_sXAHZY6f8xNma-10" value="Cliente" style="text;strokeColor=none;fillColor=none;align=center;verticalAlign=top;spacingLeft=4;spacingRight=4;overflow=hidden;rotatable=0;points=[[0,0.5],[1,0.5]];portConstraint=eastwest;whiteSpace=wrap;html=1;" vertex="1" parent="XxkqTc_sXAHZY6f8xNma-7">
          <mxGeometry y="88" width="110" height="26" as="geometry" />
        </mxCell>
        <mxCell id="XxkqTc_sXAHZY6f8xNma-14" value="" style="endArrow=open;endFill=1;endSize=12;html=1;rounded=0;" edge="1" parent="1">
          <mxGeometry width="160" relative="1" as="geometry">
            <mxPoint x="-320" y="314" as="sourcePoint" />
            <mxPoint x="-210" y="314" as="targetPoint" />
          </mxGeometry>
        </mxCell>
        <mxCell id="XxkqTc_sXAHZY6f8xNma-17" value="Dados do&lt;div&gt;Cliente&lt;/div&gt;" style="edgeLabel;html=1;align=center;verticalAlign=middle;resizable=0;points=[];" vertex="1" connectable="0" parent="XxkqTc_sXAHZY6f8xNma-14">
          <mxGeometry x="-0.139" y="1" relative="1" as="geometry">
            <mxPoint as="offset" />
          </mxGeometry>
        </mxCell>
        <mxCell id="XxkqTc_sXAHZY6f8xNma-16" value="" style="group" vertex="1" connectable="0" parent="1">
          <mxGeometry x="-380" y="285" width="60" height="60" as="geometry" />
        </mxCell>
        <mxCell id="jmiuX24OqaPnLVA-d1gP-1" value="Clientes" style="whiteSpace=wrap;html=1;aspect=fixed;fillColor=default;rounded=1;" vertex="1" parent="XxkqTc_sXAHZY6f8xNma-16">
          <mxGeometry width="60" height="60" as="geometry" />
        </mxCell>
        <mxCell id="XxkqTc_sXAHZY6f8xNma-21" value="" style="group" vertex="1" connectable="0" parent="1">
          <mxGeometry x="-215" y="130" width="120" height="32.5" as="geometry" />
        </mxCell>
        <mxCell id="XxkqTc_sXAHZY6f8xNma-28" value="" style="group" vertex="1" connectable="0" parent="XxkqTc_sXAHZY6f8xNma-21">
          <mxGeometry width="120" height="30" as="geometry" />
        </mxCell>
        <mxCell id="XxkqTc_sXAHZY6f8xNma-19" value="Clientes" style="rounded=1;whiteSpace=wrap;html=1;glass=0;shadow=0;" vertex="1" parent="XxkqTc_sXAHZY6f8xNma-28">
          <mxGeometry width="120" height="30" as="geometry" />
        </mxCell>
        <mxCell id="XxkqTc_sXAHZY6f8xNma-20" value="D1" style="rounded=1;whiteSpace=wrap;html=1;" vertex="1" parent="XxkqTc_sXAHZY6f8xNma-28">
          <mxGeometry width="30" height="30" as="geometry" />
        </mxCell>
        <mxCell id="XxkqTc_sXAHZY6f8xNma-22" value="" style="endArrow=open;endFill=1;endSize=12;html=1;rounded=0;" edge="1" parent="1">
          <mxGeometry width="160" relative="1" as="geometry">
            <mxPoint x="-155.24" y="263" as="sourcePoint" />
            <mxPoint x="-155.24" y="163" as="targetPoint" />
          </mxGeometry>
        </mxCell>
        <mxCell id="XxkqTc_sXAHZY6f8xNma-23" value="Dados do&lt;div&gt;Cliente&lt;/div&gt;" style="edgeLabel;html=1;align=center;verticalAlign=middle;resizable=0;points=[];" vertex="1" connectable="0" parent="XxkqTc_sXAHZY6f8xNma-22">
          <mxGeometry x="-0.139" y="1" relative="1" as="geometry">
            <mxPoint as="offset" />
          </mxGeometry>
        </mxCell>
        <mxCell id="XxkqTc_sXAHZY6f8xNma-29" value="" style="endArrow=open;endFill=1;endSize=12;html=1;rounded=0;entryX=0;entryY=0.5;entryDx=0;entryDy=0;exitX=1;exitY=0.5;exitDx=0;exitDy=0;" edge="1" parent="1" source="XxkqTc_sXAHZY6f8xNma-120" target="XxkqTc_sXAHZY6f8xNma-34">
          <mxGeometry width="160" relative="1" as="geometry">
            <mxPoint x="-295" y="473" as="sourcePoint" />
            <mxPoint x="-195" y="470.9999999999999" as="targetPoint" />
            <Array as="points" />
          </mxGeometry>
        </mxCell>
        <mxCell id="XxkqTc_sXAHZY6f8xNma-32" value="Dados das&amp;nbsp;&lt;div&gt;Opções&lt;/div&gt;" style="edgeLabel;html=1;align=center;verticalAlign=middle;resizable=0;points=[];" vertex="1" connectable="0" parent="XxkqTc_sXAHZY6f8xNma-29">
          <mxGeometry x="0.2985" y="-2" relative="1" as="geometry">
            <mxPoint x="-20" y="-2" as="offset" />
          </mxGeometry>
        </mxCell>
        <mxCell id="XxkqTc_sXAHZY6f8xNma-33" value="Processo 3" style="swimlane;fontStyle=1;align=center;verticalAlign=top;childLayout=stackLayout;horizontal=1;startSize=26;horizontalStack=0;resizeParent=1;resizeParentMax=0;resizeLast=0;collapsible=1;marginBottom=0;whiteSpace=wrap;html=1;rounded=1;" vertex="1" parent="1">
          <mxGeometry x="-210" y="420" width="110" height="104" as="geometry">
            <mxRectangle x="180" y="533" width="100" height="30" as="alternateBounds" />
          </mxGeometry>
        </mxCell>
        <mxCell id="XxkqTc_sXAHZY6f8xNma-34" value="Realizar&lt;div&gt;Pedido&lt;/div&gt;" style="text;strokeColor=none;fillColor=none;align=center;verticalAlign=top;spacingLeft=4;spacingRight=4;overflow=hidden;rotatable=0;points=[[0,0.5],[1,0.5]];portConstraint=eastwest;whiteSpace=wrap;html=1;" vertex="1" parent="XxkqTc_sXAHZY6f8xNma-33">
          <mxGeometry y="26" width="110" height="44" as="geometry" />
        </mxCell>
        <mxCell id="XxkqTc_sXAHZY6f8xNma-35" value="" style="line;strokeWidth=1;fillColor=none;align=left;verticalAlign=middle;spacingTop=-1;spacingLeft=3;spacingRight=3;rotatable=0;labelPosition=right;points=[];portConstraint=eastwest;strokeColor=inherit;" vertex="1" parent="XxkqTc_sXAHZY6f8xNma-33">
          <mxGeometry y="70" width="110" height="8" as="geometry" />
        </mxCell>
        <mxCell id="XxkqTc_sXAHZY6f8xNma-36" value="Cliente" style="text;strokeColor=none;fillColor=none;align=center;verticalAlign=top;spacingLeft=4;spacingRight=4;overflow=hidden;rotatable=0;points=[[0,0.5],[1,0.5]];portConstraint=eastwest;whiteSpace=wrap;html=1;" vertex="1" parent="XxkqTc_sXAHZY6f8xNma-33">
          <mxGeometry y="78" width="110" height="26" as="geometry" />
        </mxCell>
        <mxCell id="XxkqTc_sXAHZY6f8xNma-37" value="" style="endArrow=open;endFill=1;endSize=12;html=1;rounded=0;" edge="1" parent="1">
          <mxGeometry width="160" relative="1" as="geometry">
            <mxPoint x="-100" y="471.57" as="sourcePoint" />
            <mxPoint x="-10" y="471.83" as="targetPoint" />
          </mxGeometry>
        </mxCell>
        <mxCell id="XxkqTc_sXAHZY6f8xNma-38" value="Dados do&lt;div&gt;Pedido&lt;/div&gt;" style="edgeLabel;html=1;align=center;verticalAlign=middle;resizable=0;points=[];" vertex="1" connectable="0" parent="XxkqTc_sXAHZY6f8xNma-37">
          <mxGeometry x="-0.139" y="1" relative="1" as="geometry">
            <mxPoint as="offset" />
          </mxGeometry>
        </mxCell>
        <mxCell id="XxkqTc_sXAHZY6f8xNma-39" value="" style="endArrow=open;endFill=1;endSize=12;html=1;rounded=0;exitX=1;exitY=0.5;exitDx=0;exitDy=0;entryX=0.5;entryY=0;entryDx=0;entryDy=0;" edge="1" parent="1" source="XxkqTc_sXAHZY6f8xNma-19" target="XxkqTc_sXAHZY6f8xNma-33">
          <mxGeometry width="160" relative="1" as="geometry">
            <mxPoint x="-50" y="220" as="sourcePoint" />
            <mxPoint x="-30" y="180" as="targetPoint" />
            <Array as="points">
              <mxPoint x="-80" y="145" />
              <mxPoint x="-80" y="390" />
              <mxPoint x="-155" y="390" />
            </Array>
          </mxGeometry>
        </mxCell>
        <mxCell id="XxkqTc_sXAHZY6f8xNma-40" value="Dados do&lt;div&gt;Cliente&lt;/div&gt;" style="edgeLabel;html=1;align=center;verticalAlign=middle;resizable=0;points=[];" vertex="1" connectable="0" parent="XxkqTc_sXAHZY6f8xNma-39">
          <mxGeometry x="-0.139" y="1" relative="1" as="geometry">
            <mxPoint y="-48" as="offset" />
          </mxGeometry>
        </mxCell>
        <mxCell id="XxkqTc_sXAHZY6f8xNma-47" value="" style="group" vertex="1" connectable="0" parent="1">
          <mxGeometry x="-10" y="442" width="60" height="60" as="geometry" />
        </mxCell>
        <mxCell id="XxkqTc_sXAHZY6f8xNma-48" value="Entregador" style="whiteSpace=wrap;html=1;aspect=fixed;fillColor=default;rounded=1;" vertex="1" parent="XxkqTc_sXAHZY6f8xNma-47">
          <mxGeometry width="60" height="60" as="geometry" />
        </mxCell>
        <mxCell id="XxkqTc_sXAHZY6f8xNma-49" value="Processo 9" style="swimlane;fontStyle=1;align=center;verticalAlign=top;childLayout=stackLayout;horizontal=1;startSize=26;horizontalStack=0;resizeParent=1;resizeParentMax=0;resizeLast=0;collapsible=1;marginBottom=0;whiteSpace=wrap;html=1;rounded=1;" vertex="1" parent="1">
          <mxGeometry x="140" y="420" width="110" height="114" as="geometry">
            <mxRectangle x="180" y="533" width="100" height="30" as="alternateBounds" />
          </mxGeometry>
        </mxCell>
        <mxCell id="XxkqTc_sXAHZY6f8xNma-50" value="&lt;span&gt;Realizar&lt;/span&gt;&lt;div&gt;&lt;span&gt;Cadastro como&lt;/span&gt;&lt;/div&gt;&lt;div&gt;&lt;span&gt;Entregador&lt;/span&gt;&lt;/div&gt;" style="text;strokeColor=none;fillColor=none;align=center;verticalAlign=top;spacingLeft=4;spacingRight=4;overflow=hidden;rotatable=0;points=[[0,0.5],[1,0.5]];portConstraint=eastwest;whiteSpace=wrap;html=1;" vertex="1" parent="XxkqTc_sXAHZY6f8xNma-49">
          <mxGeometry y="26" width="110" height="54" as="geometry" />
        </mxCell>
        <mxCell id="XxkqTc_sXAHZY6f8xNma-51" value="" style="line;strokeWidth=1;fillColor=none;align=left;verticalAlign=middle;spacingTop=-1;spacingLeft=3;spacingRight=3;rotatable=0;labelPosition=right;points=[];portConstraint=eastwest;strokeColor=inherit;" vertex="1" parent="XxkqTc_sXAHZY6f8xNma-49">
          <mxGeometry y="80" width="110" height="8" as="geometry" />
        </mxCell>
        <mxCell id="XxkqTc_sXAHZY6f8xNma-52" value="Entregador" style="text;strokeColor=none;fillColor=none;align=center;verticalAlign=top;spacingLeft=4;spacingRight=4;overflow=hidden;rotatable=0;points=[[0,0.5],[1,0.5]];portConstraint=eastwest;whiteSpace=wrap;html=1;" vertex="1" parent="XxkqTc_sXAHZY6f8xNma-49">
          <mxGeometry y="88" width="110" height="26" as="geometry" />
        </mxCell>
        <mxCell id="XxkqTc_sXAHZY6f8xNma-55" value="" style="endArrow=open;endFill=1;endSize=12;html=1;rounded=0;" edge="1" parent="1">
          <mxGeometry width="160" relative="1" as="geometry">
            <mxPoint x="50" y="471.7" as="sourcePoint" />
            <mxPoint x="140" y="471.96" as="targetPoint" />
          </mxGeometry>
        </mxCell>
        <mxCell id="XxkqTc_sXAHZY6f8xNma-56" value="Dados do&lt;div&gt;Entregador&lt;/div&gt;" style="edgeLabel;html=1;align=center;verticalAlign=middle;resizable=0;points=[];" vertex="1" connectable="0" parent="XxkqTc_sXAHZY6f8xNma-55">
          <mxGeometry x="-0.139" y="1" relative="1" as="geometry">
            <mxPoint as="offset" />
          </mxGeometry>
        </mxCell>
        <mxCell id="XxkqTc_sXAHZY6f8xNma-73" value="" style="endArrow=open;endFill=1;endSize=12;html=1;rounded=0;" edge="1" parent="1">
          <mxGeometry width="160" relative="1" as="geometry">
            <mxPoint x="194.76" y="420" as="sourcePoint" />
            <mxPoint x="194.76" y="343" as="targetPoint" />
          </mxGeometry>
        </mxCell>
        <mxCell id="XxkqTc_sXAHZY6f8xNma-74" value="Dados do&lt;div&gt;Entregador&lt;/div&gt;" style="edgeLabel;html=1;align=center;verticalAlign=middle;resizable=0;points=[];" vertex="1" connectable="0" parent="XxkqTc_sXAHZY6f8xNma-73">
          <mxGeometry x="-0.139" y="1" relative="1" as="geometry">
            <mxPoint as="offset" />
          </mxGeometry>
        </mxCell>
        <mxCell id="XxkqTc_sXAHZY6f8xNma-75" value="" style="group" vertex="1" connectable="0" parent="1">
          <mxGeometry x="130" y="312.5" width="120" height="32.5" as="geometry" />
        </mxCell>
        <mxCell id="XxkqTc_sXAHZY6f8xNma-76" value="" style="group" vertex="1" connectable="0" parent="XxkqTc_sXAHZY6f8xNma-75">
          <mxGeometry width="120" height="30" as="geometry" />
        </mxCell>
        <mxCell id="XxkqTc_sXAHZY6f8xNma-77" value="&amp;nbsp; &amp;nbsp; &amp;nbsp;Entregadores" style="rounded=1;whiteSpace=wrap;html=1;glass=0;shadow=0;align=center;" vertex="1" parent="XxkqTc_sXAHZY6f8xNma-76">
          <mxGeometry width="120" height="30" as="geometry" />
        </mxCell>
        <mxCell id="XxkqTc_sXAHZY6f8xNma-78" value="D2" style="rounded=1;whiteSpace=wrap;html=1;" vertex="1" parent="XxkqTc_sXAHZY6f8xNma-76">
          <mxGeometry width="30" height="30" as="geometry" />
        </mxCell>
        <mxCell id="XxkqTc_sXAHZY6f8xNma-79" value="" style="endArrow=open;endFill=1;endSize=12;html=1;rounded=0;entryX=0.5;entryY=1;entryDx=0;entryDy=0;" edge="1" parent="1" target="XxkqTc_sXAHZY6f8xNma-81">
          <mxGeometry width="160" relative="1" as="geometry">
            <mxPoint x="19.75999999999999" y="442" as="sourcePoint" />
            <mxPoint x="19.75999999999999" y="370.43" as="targetPoint" />
          </mxGeometry>
        </mxCell>
        <mxCell id="XxkqTc_sXAHZY6f8xNma-80" value="Dados do&lt;div&gt;Pedido&lt;/div&gt;" style="edgeLabel;html=1;align=center;verticalAlign=middle;resizable=0;points=[];" vertex="1" connectable="0" parent="XxkqTc_sXAHZY6f8xNma-79">
          <mxGeometry x="-0.139" y="1" relative="1" as="geometry">
            <mxPoint as="offset" />
          </mxGeometry>
        </mxCell>
        <mxCell id="XxkqTc_sXAHZY6f8xNma-81" value="Processo 4" style="swimlane;fontStyle=1;align=center;verticalAlign=top;childLayout=stackLayout;horizontal=1;startSize=26;horizontalStack=0;resizeParent=1;resizeParentMax=0;resizeLast=0;collapsible=1;marginBottom=0;whiteSpace=wrap;html=1;rounded=1;" vertex="1" parent="1">
          <mxGeometry x="-35" y="285" width="110" height="104" as="geometry">
            <mxRectangle x="180" y="533" width="100" height="30" as="alternateBounds" />
          </mxGeometry>
        </mxCell>
        <mxCell id="XxkqTc_sXAHZY6f8xNma-82" value="Aceitar&lt;div&gt;Pedido&lt;/div&gt;" style="text;strokeColor=none;fillColor=none;align=center;verticalAlign=top;spacingLeft=4;spacingRight=4;overflow=hidden;rotatable=0;points=[[0,0.5],[1,0.5]];portConstraint=eastwest;whiteSpace=wrap;html=1;" vertex="1" parent="XxkqTc_sXAHZY6f8xNma-81">
          <mxGeometry y="26" width="110" height="44" as="geometry" />
        </mxCell>
        <mxCell id="XxkqTc_sXAHZY6f8xNma-83" value="" style="line;strokeWidth=1;fillColor=none;align=left;verticalAlign=middle;spacingTop=-1;spacingLeft=3;spacingRight=3;rotatable=0;labelPosition=right;points=[];portConstraint=eastwest;strokeColor=inherit;" vertex="1" parent="XxkqTc_sXAHZY6f8xNma-81">
          <mxGeometry y="70" width="110" height="8" as="geometry" />
        </mxCell>
        <mxCell id="XxkqTc_sXAHZY6f8xNma-84" value="Entregador" style="text;strokeColor=none;fillColor=none;align=center;verticalAlign=top;spacingLeft=4;spacingRight=4;overflow=hidden;rotatable=0;points=[[0,0.5],[1,0.5]];portConstraint=eastwest;whiteSpace=wrap;html=1;" vertex="1" parent="XxkqTc_sXAHZY6f8xNma-81">
          <mxGeometry y="78" width="110" height="26" as="geometry" />
        </mxCell>
        <mxCell id="XxkqTc_sXAHZY6f8xNma-85" value="Processo 8" style="swimlane;fontStyle=1;align=center;verticalAlign=top;childLayout=stackLayout;horizontal=1;startSize=26;horizontalStack=0;resizeParent=1;resizeParentMax=0;resizeLast=0;collapsible=1;marginBottom=0;whiteSpace=wrap;html=1;rounded=1;" vertex="1" parent="1">
          <mxGeometry x="-35" y="570" width="110" height="104" as="geometry">
            <mxRectangle x="180" y="533" width="100" height="30" as="alternateBounds" />
          </mxGeometry>
        </mxCell>
        <mxCell id="XxkqTc_sXAHZY6f8xNma-86" value="Recusar&lt;div&gt;Pedido&lt;/div&gt;" style="text;strokeColor=none;fillColor=none;align=center;verticalAlign=top;spacingLeft=4;spacingRight=4;overflow=hidden;rotatable=0;points=[[0,0.5],[1,0.5]];portConstraint=eastwest;whiteSpace=wrap;html=1;" vertex="1" parent="XxkqTc_sXAHZY6f8xNma-85">
          <mxGeometry y="26" width="110" height="44" as="geometry" />
        </mxCell>
        <mxCell id="XxkqTc_sXAHZY6f8xNma-87" value="" style="line;strokeWidth=1;fillColor=none;align=left;verticalAlign=middle;spacingTop=-1;spacingLeft=3;spacingRight=3;rotatable=0;labelPosition=right;points=[];portConstraint=eastwest;strokeColor=inherit;" vertex="1" parent="XxkqTc_sXAHZY6f8xNma-85">
          <mxGeometry y="70" width="110" height="8" as="geometry" />
        </mxCell>
        <mxCell id="XxkqTc_sXAHZY6f8xNma-88" value="Entregador" style="text;strokeColor=none;fillColor=none;align=center;verticalAlign=top;spacingLeft=4;spacingRight=4;overflow=hidden;rotatable=0;points=[[0,0.5],[1,0.5]];portConstraint=eastwest;whiteSpace=wrap;html=1;" vertex="1" parent="XxkqTc_sXAHZY6f8xNma-85">
          <mxGeometry y="78" width="110" height="26" as="geometry" />
        </mxCell>
        <mxCell id="XxkqTc_sXAHZY6f8xNma-89" value="" style="endArrow=open;endFill=1;endSize=12;html=1;rounded=0;" edge="1" parent="1">
          <mxGeometry width="160" relative="1" as="geometry">
            <mxPoint x="20.069999999999993" y="502" as="sourcePoint" />
            <mxPoint x="20" y="570" as="targetPoint" />
          </mxGeometry>
        </mxCell>
        <mxCell id="XxkqTc_sXAHZY6f8xNma-90" value="Dados do&lt;div&gt;Pedido&lt;/div&gt;" style="edgeLabel;html=1;align=center;verticalAlign=middle;resizable=0;points=[];" vertex="1" connectable="0" parent="XxkqTc_sXAHZY6f8xNma-89">
          <mxGeometry x="-0.139" y="1" relative="1" as="geometry">
            <mxPoint as="offset" />
          </mxGeometry>
        </mxCell>
        <mxCell id="XxkqTc_sXAHZY6f8xNma-91" value="" style="endArrow=open;endFill=1;endSize=12;html=1;rounded=0;entryX=1;entryY=0.5;entryDx=0;entryDy=0;exitX=0.537;exitY=-0.014;exitDx=0;exitDy=0;exitPerimeter=0;" edge="1" parent="1" source="XxkqTc_sXAHZY6f8xNma-77" target="XxkqTc_sXAHZY6f8xNma-82">
          <mxGeometry width="160" relative="1" as="geometry">
            <mxPoint x="190" y="310" as="sourcePoint" />
            <mxPoint x="204.76" y="353" as="targetPoint" />
            <Array as="points">
              <mxPoint x="194" y="290" />
              <mxPoint x="100" y="290" />
              <mxPoint x="100" y="333" />
            </Array>
          </mxGeometry>
        </mxCell>
        <mxCell id="XxkqTc_sXAHZY6f8xNma-92" value="Dados do&lt;div&gt;Entregador&lt;/div&gt;" style="edgeLabel;html=1;align=center;verticalAlign=middle;resizable=0;points=[];" vertex="1" connectable="0" parent="XxkqTc_sXAHZY6f8xNma-91">
          <mxGeometry x="-0.139" y="1" relative="1" as="geometry">
            <mxPoint x="8" y="-2" as="offset" />
          </mxGeometry>
        </mxCell>
        <mxCell id="XxkqTc_sXAHZY6f8xNma-93" value="Processo 5" style="swimlane;fontStyle=1;align=center;verticalAlign=top;childLayout=stackLayout;horizontal=1;startSize=26;horizontalStack=0;resizeParent=1;resizeParentMax=0;resizeLast=0;collapsible=1;marginBottom=0;whiteSpace=wrap;html=1;rounded=1;" vertex="1" parent="1">
          <mxGeometry x="-35" y="130" width="110" height="104" as="geometry">
            <mxRectangle x="180" y="533" width="100" height="30" as="alternateBounds" />
          </mxGeometry>
        </mxCell>
        <mxCell id="XxkqTc_sXAHZY6f8xNma-94" value="&lt;div style=&quot;line-height: 100%;&quot;&gt;Alterar Status&lt;div&gt;do Pedido&lt;/div&gt;&lt;div&gt;&lt;font style=&quot;font-size: 5px; line-height: 100%;&quot;&gt;(em andamento, recebido, entregue)&lt;/font&gt;&lt;/div&gt;&lt;/div&gt;" style="text;strokeColor=none;fillColor=none;align=center;verticalAlign=top;spacingLeft=4;spacingRight=4;overflow=hidden;rotatable=0;points=[[0,0.5],[1,0.5]];portConstraint=eastwest;whiteSpace=wrap;html=1;" vertex="1" parent="XxkqTc_sXAHZY6f8xNma-93">
          <mxGeometry y="26" width="110" height="44" as="geometry" />
        </mxCell>
        <mxCell id="XxkqTc_sXAHZY6f8xNma-95" value="" style="line;strokeWidth=1;fillColor=none;align=left;verticalAlign=middle;spacingTop=-1;spacingLeft=3;spacingRight=3;rotatable=0;labelPosition=right;points=[];portConstraint=eastwest;strokeColor=inherit;" vertex="1" parent="XxkqTc_sXAHZY6f8xNma-93">
          <mxGeometry y="70" width="110" height="8" as="geometry" />
        </mxCell>
        <mxCell id="XxkqTc_sXAHZY6f8xNma-96" value="Entregador" style="text;strokeColor=none;fillColor=none;align=center;verticalAlign=top;spacingLeft=4;spacingRight=4;overflow=hidden;rotatable=0;points=[[0,0.5],[1,0.5]];portConstraint=eastwest;whiteSpace=wrap;html=1;" vertex="1" parent="XxkqTc_sXAHZY6f8xNma-93">
          <mxGeometry y="78" width="110" height="26" as="geometry" />
        </mxCell>
        <mxCell id="XxkqTc_sXAHZY6f8xNma-98" value="" style="endArrow=open;endFill=1;endSize=12;html=1;rounded=0;exitX=0.5;exitY=0;exitDx=0;exitDy=0;entryX=0.5;entryY=1;entryDx=0;entryDy=0;" edge="1" parent="1" source="XxkqTc_sXAHZY6f8xNma-81" target="XxkqTc_sXAHZY6f8xNma-93">
          <mxGeometry width="160" relative="1" as="geometry">
            <mxPoint x="20" y="280" as="sourcePoint" />
            <mxPoint x="20" y="240" as="targetPoint" />
          </mxGeometry>
        </mxCell>
        <mxCell id="XxkqTc_sXAHZY6f8xNma-99" value="Dados do&lt;div&gt;Pedido&lt;/div&gt;" style="edgeLabel;html=1;align=center;verticalAlign=middle;resizable=0;points=[];" vertex="1" connectable="0" parent="XxkqTc_sXAHZY6f8xNma-98">
          <mxGeometry x="-0.139" y="1" relative="1" as="geometry">
            <mxPoint as="offset" />
          </mxGeometry>
        </mxCell>
        <mxCell id="XxkqTc_sXAHZY6f8xNma-104" value="Processo 10" style="swimlane;fontStyle=1;align=center;verticalAlign=top;childLayout=stackLayout;horizontal=1;startSize=26;horizontalStack=0;resizeParent=1;resizeParentMax=0;resizeLast=0;collapsible=1;marginBottom=0;whiteSpace=wrap;html=1;rounded=1;" vertex="1" parent="1">
          <mxGeometry x="-610" y="502" width="110" height="114" as="geometry">
            <mxRectangle x="180" y="533" width="100" height="30" as="alternateBounds" />
          </mxGeometry>
        </mxCell>
        <mxCell id="XxkqTc_sXAHZY6f8xNma-105" value="&lt;span&gt;Realizar&lt;/span&gt;&lt;div&gt;&lt;span&gt;Cadastro como&lt;/span&gt;&lt;/div&gt;&lt;div&gt;Restaurante&lt;/div&gt;" style="text;strokeColor=none;fillColor=none;align=center;verticalAlign=top;spacingLeft=4;spacingRight=4;overflow=hidden;rotatable=0;points=[[0,0.5],[1,0.5]];portConstraint=eastwest;whiteSpace=wrap;html=1;" vertex="1" parent="XxkqTc_sXAHZY6f8xNma-104">
          <mxGeometry y="26" width="110" height="54" as="geometry" />
        </mxCell>
        <mxCell id="XxkqTc_sXAHZY6f8xNma-106" value="" style="line;strokeWidth=1;fillColor=none;align=left;verticalAlign=middle;spacingTop=-1;spacingLeft=3;spacingRight=3;rotatable=0;labelPosition=right;points=[];portConstraint=eastwest;strokeColor=inherit;" vertex="1" parent="XxkqTc_sXAHZY6f8xNma-104">
          <mxGeometry y="80" width="110" height="8" as="geometry" />
        </mxCell>
        <mxCell id="XxkqTc_sXAHZY6f8xNma-107" value="Restaurante" style="text;strokeColor=none;fillColor=none;align=center;verticalAlign=top;spacingLeft=4;spacingRight=4;overflow=hidden;rotatable=0;points=[[0,0.5],[1,0.5]];portConstraint=eastwest;whiteSpace=wrap;html=1;" vertex="1" parent="XxkqTc_sXAHZY6f8xNma-104">
          <mxGeometry y="88" width="110" height="26" as="geometry" />
        </mxCell>
        <mxCell id="XxkqTc_sXAHZY6f8xNma-108" value="" style="endArrow=open;endFill=1;endSize=12;html=1;rounded=0;exitX=1;exitY=0.5;exitDx=0;exitDy=0;entryX=0;entryY=0.5;entryDx=0;entryDy=0;" edge="1" parent="1" source="XxkqTc_sXAHZY6f8xNma-94" target="XxkqTc_sXAHZY6f8xNma-111">
          <mxGeometry width="160" relative="1" as="geometry">
            <mxPoint x="140" y="181" as="sourcePoint" />
            <mxPoint x="160" y="180" as="targetPoint" />
          </mxGeometry>
        </mxCell>
        <mxCell id="XxkqTc_sXAHZY6f8xNma-109" value="Dados do&lt;div&gt;Pedido&lt;/div&gt;" style="edgeLabel;html=1;align=center;verticalAlign=middle;resizable=0;points=[];" vertex="1" connectable="0" parent="XxkqTc_sXAHZY6f8xNma-108">
          <mxGeometry x="-0.139" y="1" relative="1" as="geometry">
            <mxPoint y="1" as="offset" />
          </mxGeometry>
        </mxCell>
        <mxCell id="XxkqTc_sXAHZY6f8xNma-110" value="Processo 6" style="swimlane;fontStyle=1;align=center;verticalAlign=top;childLayout=stackLayout;horizontal=1;startSize=26;horizontalStack=0;resizeParent=1;resizeParentMax=0;resizeLast=0;collapsible=1;marginBottom=0;whiteSpace=wrap;html=1;rounded=1;" vertex="1" parent="1">
          <mxGeometry x="140" y="130" width="110" height="104" as="geometry">
            <mxRectangle x="180" y="533" width="100" height="30" as="alternateBounds" />
          </mxGeometry>
        </mxCell>
        <mxCell id="XxkqTc_sXAHZY6f8xNma-111" value="&lt;div style=&quot;line-height: 100%;&quot;&gt;Finalizar&lt;br&gt;&lt;/div&gt;&lt;div style=&quot;line-height: 100%;&quot;&gt;Pedido&lt;/div&gt;" style="text;strokeColor=none;fillColor=none;align=center;verticalAlign=top;spacingLeft=4;spacingRight=4;overflow=hidden;rotatable=0;points=[[0,0.5],[1,0.5]];portConstraint=eastwest;whiteSpace=wrap;html=1;" vertex="1" parent="XxkqTc_sXAHZY6f8xNma-110">
          <mxGeometry y="26" width="110" height="44" as="geometry" />
        </mxCell>
        <mxCell id="XxkqTc_sXAHZY6f8xNma-112" value="" style="line;strokeWidth=1;fillColor=none;align=left;verticalAlign=middle;spacingTop=-1;spacingLeft=3;spacingRight=3;rotatable=0;labelPosition=right;points=[];portConstraint=eastwest;strokeColor=inherit;" vertex="1" parent="XxkqTc_sXAHZY6f8xNma-110">
          <mxGeometry y="70" width="110" height="8" as="geometry" />
        </mxCell>
        <mxCell id="XxkqTc_sXAHZY6f8xNma-113" value="Entregador" style="text;strokeColor=none;fillColor=none;align=center;verticalAlign=top;spacingLeft=4;spacingRight=4;overflow=hidden;rotatable=0;points=[[0,0.5],[1,0.5]];portConstraint=eastwest;whiteSpace=wrap;html=1;" vertex="1" parent="XxkqTc_sXAHZY6f8xNma-110">
          <mxGeometry y="78" width="110" height="26" as="geometry" />
        </mxCell>
        <mxCell id="XxkqTc_sXAHZY6f8xNma-115" value="Processo 11" style="swimlane;fontStyle=1;align=center;verticalAlign=top;childLayout=stackLayout;horizontal=1;startSize=26;horizontalStack=0;resizeParent=1;resizeParentMax=0;resizeLast=0;collapsible=1;marginBottom=0;whiteSpace=wrap;html=1;rounded=1;" vertex="1" parent="1">
          <mxGeometry x="-405" y="660" width="110" height="114" as="geometry">
            <mxRectangle x="180" y="533" width="100" height="30" as="alternateBounds" />
          </mxGeometry>
        </mxCell>
        <mxCell id="XxkqTc_sXAHZY6f8xNma-116" value="Cadastrar&lt;div&gt;Opções de Comidas&lt;/div&gt;" style="text;strokeColor=none;fillColor=none;align=center;verticalAlign=top;spacingLeft=4;spacingRight=4;overflow=hidden;rotatable=0;points=[[0,0.5],[1,0.5]];portConstraint=eastwest;whiteSpace=wrap;html=1;" vertex="1" parent="XxkqTc_sXAHZY6f8xNma-115">
          <mxGeometry y="26" width="110" height="54" as="geometry" />
        </mxCell>
        <mxCell id="XxkqTc_sXAHZY6f8xNma-117" value="" style="line;strokeWidth=1;fillColor=none;align=left;verticalAlign=middle;spacingTop=-1;spacingLeft=3;spacingRight=3;rotatable=0;labelPosition=right;points=[];portConstraint=eastwest;strokeColor=inherit;" vertex="1" parent="XxkqTc_sXAHZY6f8xNma-115">
          <mxGeometry y="80" width="110" height="8" as="geometry" />
        </mxCell>
        <mxCell id="XxkqTc_sXAHZY6f8xNma-118" value="Restaurante" style="text;strokeColor=none;fillColor=none;align=center;verticalAlign=top;spacingLeft=4;spacingRight=4;overflow=hidden;rotatable=0;points=[[0,0.5],[1,0.5]];portConstraint=eastwest;whiteSpace=wrap;html=1;" vertex="1" parent="XxkqTc_sXAHZY6f8xNma-115">
          <mxGeometry y="88" width="110" height="26" as="geometry" />
        </mxCell>
        <mxCell id="XxkqTc_sXAHZY6f8xNma-119" value="Processo 2" style="swimlane;fontStyle=1;align=center;verticalAlign=top;childLayout=stackLayout;horizontal=1;startSize=26;horizontalStack=0;resizeParent=1;resizeParentMax=0;resizeLast=0;collapsible=1;marginBottom=0;whiteSpace=wrap;html=1;rounded=1;" vertex="1" parent="1">
          <mxGeometry x="-405" y="415" width="110" height="114" as="geometry">
            <mxRectangle x="180" y="533" width="100" height="30" as="alternateBounds" />
          </mxGeometry>
        </mxCell>
        <mxCell id="XxkqTc_sXAHZY6f8xNma-120" value="Visualizar&lt;div&gt;Opções de Comida&lt;/div&gt;" style="text;strokeColor=none;fillColor=none;align=center;verticalAlign=top;spacingLeft=4;spacingRight=4;overflow=hidden;rotatable=0;points=[[0,0.5],[1,0.5]];portConstraint=eastwest;whiteSpace=wrap;html=1;" vertex="1" parent="XxkqTc_sXAHZY6f8xNma-119">
          <mxGeometry y="26" width="110" height="54" as="geometry" />
        </mxCell>
        <mxCell id="XxkqTc_sXAHZY6f8xNma-121" value="" style="line;strokeWidth=1;fillColor=none;align=left;verticalAlign=middle;spacingTop=-1;spacingLeft=3;spacingRight=3;rotatable=0;labelPosition=right;points=[];portConstraint=eastwest;strokeColor=inherit;" vertex="1" parent="XxkqTc_sXAHZY6f8xNma-119">
          <mxGeometry y="80" width="110" height="8" as="geometry" />
        </mxCell>
        <mxCell id="XxkqTc_sXAHZY6f8xNma-122" value="Cliente" style="text;strokeColor=none;fillColor=none;align=center;verticalAlign=top;spacingLeft=4;spacingRight=4;overflow=hidden;rotatable=0;points=[[0,0.5],[1,0.5]];portConstraint=eastwest;whiteSpace=wrap;html=1;" vertex="1" parent="XxkqTc_sXAHZY6f8xNma-119">
          <mxGeometry y="88" width="110" height="26" as="geometry" />
        </mxCell>
        <mxCell id="XxkqTc_sXAHZY6f8xNma-124" value="" style="endArrow=open;endFill=1;endSize=12;html=1;rounded=0;exitX=0.5;exitY=1;exitDx=0;exitDy=0;entryX=0.5;entryY=0;entryDx=0;entryDy=0;" edge="1" parent="1" source="jmiuX24OqaPnLVA-d1gP-1" target="XxkqTc_sXAHZY6f8xNma-119">
          <mxGeometry width="160" relative="1" as="geometry">
            <mxPoint x="-310" y="324" as="sourcePoint" />
            <mxPoint x="-200" y="324" as="targetPoint" />
          </mxGeometry>
        </mxCell>
        <mxCell id="XxkqTc_sXAHZY6f8xNma-125" value="Dados das&lt;div&gt;Opções&lt;/div&gt;" style="edgeLabel;html=1;align=center;verticalAlign=middle;resizable=0;points=[];" vertex="1" connectable="0" parent="XxkqTc_sXAHZY6f8xNma-124">
          <mxGeometry x="-0.139" y="1" relative="1" as="geometry">
            <mxPoint as="offset" />
          </mxGeometry>
        </mxCell>
        <mxCell id="XxkqTc_sXAHZY6f8xNma-127" value="" style="group" vertex="1" connectable="0" parent="1">
          <mxGeometry x="-410" y="580" width="120" height="32.5" as="geometry" />
        </mxCell>
        <mxCell id="XxkqTc_sXAHZY6f8xNma-128" value="" style="group" vertex="1" connectable="0" parent="XxkqTc_sXAHZY6f8xNma-127">
          <mxGeometry width="120" height="30" as="geometry" />
        </mxCell>
        <mxCell id="XxkqTc_sXAHZY6f8xNma-129" value="Comidas" style="rounded=1;whiteSpace=wrap;html=1;glass=0;shadow=0;" vertex="1" parent="XxkqTc_sXAHZY6f8xNma-128">
          <mxGeometry width="120" height="30" as="geometry" />
        </mxCell>
        <mxCell id="XxkqTc_sXAHZY6f8xNma-130" value="D4" style="rounded=1;whiteSpace=wrap;html=1;" vertex="1" parent="XxkqTc_sXAHZY6f8xNma-128">
          <mxGeometry width="30" height="30" as="geometry" />
        </mxCell>
        <mxCell id="XxkqTc_sXAHZY6f8xNma-131" value="" style="endArrow=open;endFill=1;endSize=12;html=1;rounded=0;entryX=0.5;entryY=1;entryDx=0;entryDy=0;exitX=0.5;exitY=0;exitDx=0;exitDy=0;" edge="1" parent="1" source="XxkqTc_sXAHZY6f8xNma-115" target="XxkqTc_sXAHZY6f8xNma-129">
          <mxGeometry width="160" relative="1" as="geometry">
            <mxPoint x="-350" y="660" as="sourcePoint" />
            <mxPoint x="-350.38" y="610" as="targetPoint" />
          </mxGeometry>
        </mxCell>
        <mxCell id="XxkqTc_sXAHZY6f8xNma-132" value="Dados da&lt;div&gt;Comida&lt;/div&gt;" style="edgeLabel;html=1;align=center;verticalAlign=middle;resizable=0;points=[];" vertex="1" connectable="0" parent="XxkqTc_sXAHZY6f8xNma-131">
          <mxGeometry x="-0.139" y="1" relative="1" as="geometry">
            <mxPoint as="offset" />
          </mxGeometry>
        </mxCell>
        <mxCell id="XxkqTc_sXAHZY6f8xNma-133" value="" style="endArrow=open;endFill=1;endSize=12;html=1;rounded=0;" edge="1" parent="1">
          <mxGeometry width="160" relative="1" as="geometry">
            <mxPoint x="-350" y="579" as="sourcePoint" />
            <mxPoint x="-350" y="530" as="targetPoint" />
          </mxGeometry>
        </mxCell>
        <mxCell id="XxkqTc_sXAHZY6f8xNma-134" value="Dados da&lt;div&gt;Comida&lt;/div&gt;" style="edgeLabel;html=1;align=center;verticalAlign=middle;resizable=0;points=[];" vertex="1" connectable="0" parent="XxkqTc_sXAHZY6f8xNma-133">
          <mxGeometry x="-0.139" y="1" relative="1" as="geometry">
            <mxPoint as="offset" />
          </mxGeometry>
        </mxCell>
        <mxCell id="XxkqTc_sXAHZY6f8xNma-103" value="Restaurante" style="whiteSpace=wrap;html=1;aspect=fixed;fillColor=default;rounded=1;" vertex="1" parent="1">
          <mxGeometry x="-590" y="686" width="70" height="70" as="geometry" />
        </mxCell>
        <mxCell id="XxkqTc_sXAHZY6f8xNma-140" value="" style="endArrow=open;endFill=1;endSize=12;html=1;rounded=0;entryX=0.028;entryY=0.648;entryDx=0;entryDy=0;entryPerimeter=0;" edge="1" parent="1">
          <mxGeometry width="160" relative="1" as="geometry">
            <mxPoint x="-520" y="721" as="sourcePoint" />
            <mxPoint x="-404.99999999999994" y="721.182" as="targetPoint" />
            <Array as="points" />
          </mxGeometry>
        </mxCell>
        <mxCell id="XxkqTc_sXAHZY6f8xNma-141" value="Dados da&lt;div&gt;Comida&lt;/div&gt;" style="edgeLabel;html=1;align=center;verticalAlign=middle;resizable=0;points=[];" vertex="1" connectable="0" parent="XxkqTc_sXAHZY6f8xNma-140">
          <mxGeometry x="0.2985" y="-2" relative="1" as="geometry">
            <mxPoint x="-24" y="-2" as="offset" />
          </mxGeometry>
        </mxCell>
        <mxCell id="XxkqTc_sXAHZY6f8xNma-143" value="" style="endArrow=open;endFill=1;endSize=12;html=1;rounded=0;entryX=0.502;entryY=1.035;entryDx=0;entryDy=0;entryPerimeter=0;exitX=0.5;exitY=0;exitDx=0;exitDy=0;" edge="1" parent="1" source="XxkqTc_sXAHZY6f8xNma-103" target="XxkqTc_sXAHZY6f8xNma-107">
          <mxGeometry width="160" relative="1" as="geometry">
            <mxPoint x="-590" y="621.5699999999999" as="sourcePoint" />
            <mxPoint x="-474.99999999999994" y="621.752" as="targetPoint" />
            <Array as="points" />
          </mxGeometry>
        </mxCell>
        <mxCell id="XxkqTc_sXAHZY6f8xNma-144" value="Dados do&lt;div&gt;Restaurante&lt;/div&gt;" style="edgeLabel;html=1;align=center;verticalAlign=middle;resizable=0;points=[];" vertex="1" connectable="0" parent="XxkqTc_sXAHZY6f8xNma-143">
          <mxGeometry x="0.2985" y="-2" relative="1" as="geometry">
            <mxPoint x="-2" y="9" as="offset" />
          </mxGeometry>
        </mxCell>
        <mxCell id="XxkqTc_sXAHZY6f8xNma-145" value="" style="group" vertex="1" connectable="0" parent="1">
          <mxGeometry x="-615" y="400" width="120" height="32.5" as="geometry" />
        </mxCell>
        <mxCell id="XxkqTc_sXAHZY6f8xNma-146" value="" style="group" vertex="1" connectable="0" parent="XxkqTc_sXAHZY6f8xNma-145">
          <mxGeometry width="120" height="30" as="geometry" />
        </mxCell>
        <mxCell id="XxkqTc_sXAHZY6f8xNma-147" value="&amp;nbsp; &amp;nbsp;Restaurante" style="rounded=1;whiteSpace=wrap;html=1;glass=0;shadow=0;" vertex="1" parent="XxkqTc_sXAHZY6f8xNma-146">
          <mxGeometry width="120" height="30" as="geometry" />
        </mxCell>
        <mxCell id="XxkqTc_sXAHZY6f8xNma-148" value="D3" style="rounded=1;whiteSpace=wrap;html=1;" vertex="1" parent="XxkqTc_sXAHZY6f8xNma-146">
          <mxGeometry width="30" height="30" as="geometry" />
        </mxCell>
        <mxCell id="XxkqTc_sXAHZY6f8xNma-149" value="" style="endArrow=open;endFill=1;endSize=12;html=1;rounded=0;" edge="1" parent="1">
          <mxGeometry width="160" relative="1" as="geometry">
            <mxPoint x="-555.24" y="502" as="sourcePoint" />
            <mxPoint x="-555" y="430" as="targetPoint" />
          </mxGeometry>
        </mxCell>
        <mxCell id="XxkqTc_sXAHZY6f8xNma-150" value="Dados do&lt;div&gt;Restaurante&lt;/div&gt;" style="edgeLabel;html=1;align=center;verticalAlign=middle;resizable=0;points=[];" vertex="1" connectable="0" parent="XxkqTc_sXAHZY6f8xNma-149">
          <mxGeometry x="-0.139" y="1" relative="1" as="geometry">
            <mxPoint as="offset" />
          </mxGeometry>
        </mxCell>
        <mxCell id="XxkqTc_sXAHZY6f8xNma-151" value="" style="endArrow=open;endFill=1;endSize=12;html=1;rounded=0;exitX=1;exitY=0.5;exitDx=0;exitDy=0;entryX=0;entryY=0.5;entryDx=0;entryDy=0;" edge="1" parent="1" source="XxkqTc_sXAHZY6f8xNma-147" target="XxkqTc_sXAHZY6f8xNma-120">
          <mxGeometry width="160" relative="1" as="geometry">
            <mxPoint x="-545.24" y="512" as="sourcePoint" />
            <mxPoint x="-545" y="440" as="targetPoint" />
            <Array as="points">
              <mxPoint x="-460" y="415" />
              <mxPoint x="-460" y="468" />
            </Array>
          </mxGeometry>
        </mxCell>
        <mxCell id="XxkqTc_sXAHZY6f8xNma-152" value="Dados do&lt;div&gt;Restaurante&lt;/div&gt;" style="edgeLabel;html=1;align=center;verticalAlign=middle;resizable=0;points=[];" vertex="1" connectable="0" parent="XxkqTc_sXAHZY6f8xNma-151">
          <mxGeometry x="-0.139" y="1" relative="1" as="geometry">
            <mxPoint as="offset" />
          </mxGeometry>
        </mxCell>
        <mxCell id="XxkqTc_sXAHZY6f8xNma-154" value="" style="endArrow=open;endFill=1;endSize=12;html=1;rounded=0;exitX=1;exitY=0.5;exitDx=0;exitDy=0;entryX=0;entryY=0.5;entryDx=0;entryDy=0;" edge="1" parent="1" source="XxkqTc_sXAHZY6f8xNma-111" target="XxkqTc_sXAHZY6f8xNma-157">
          <mxGeometry width="160" relative="1" as="geometry">
            <mxPoint x="250" y="177.58" as="sourcePoint" />
            <mxPoint x="315" y="177.58" as="targetPoint" />
          </mxGeometry>
        </mxCell>
        <mxCell id="XxkqTc_sXAHZY6f8xNma-155" value="Dados do&lt;div&gt;Pedido&lt;/div&gt;" style="edgeLabel;html=1;align=center;verticalAlign=middle;resizable=0;points=[];" vertex="1" connectable="0" parent="XxkqTc_sXAHZY6f8xNma-154">
          <mxGeometry x="-0.139" y="1" relative="1" as="geometry">
            <mxPoint y="1" as="offset" />
          </mxGeometry>
        </mxCell>
        <mxCell id="XxkqTc_sXAHZY6f8xNma-156" value="Processo 7" style="swimlane;fontStyle=1;align=center;verticalAlign=top;childLayout=stackLayout;horizontal=1;startSize=26;horizontalStack=0;resizeParent=1;resizeParentMax=0;resizeLast=0;collapsible=1;marginBottom=0;whiteSpace=wrap;html=1;rounded=1;" vertex="1" parent="1">
          <mxGeometry x="320" y="130" width="110" height="104" as="geometry">
            <mxRectangle x="180" y="533" width="100" height="30" as="alternateBounds" />
          </mxGeometry>
        </mxCell>
        <mxCell id="XxkqTc_sXAHZY6f8xNma-157" value="&lt;div style=&quot;line-height: 100%;&quot;&gt;Realizar&lt;/div&gt;&lt;div style=&quot;line-height: 100%;&quot;&gt;Pagamento&lt;/div&gt;&lt;div style=&quot;line-height: 100%;&quot;&gt;&lt;span style=&quot;font-size: 5px;&quot;&gt;(feito no aplicativo)&lt;/span&gt;&lt;/div&gt;" style="text;strokeColor=none;fillColor=none;align=center;verticalAlign=top;spacingLeft=4;spacingRight=4;overflow=hidden;rotatable=0;points=[[0,0.5],[1,0.5]];portConstraint=eastwest;whiteSpace=wrap;html=1;" vertex="1" parent="XxkqTc_sXAHZY6f8xNma-156">
          <mxGeometry y="26" width="110" height="44" as="geometry" />
        </mxCell>
        <mxCell id="XxkqTc_sXAHZY6f8xNma-158" value="" style="line;strokeWidth=1;fillColor=none;align=left;verticalAlign=middle;spacingTop=-1;spacingLeft=3;spacingRight=3;rotatable=0;labelPosition=right;points=[];portConstraint=eastwest;strokeColor=inherit;" vertex="1" parent="XxkqTc_sXAHZY6f8xNma-156">
          <mxGeometry y="70" width="110" height="8" as="geometry" />
        </mxCell>
        <mxCell id="XxkqTc_sXAHZY6f8xNma-159" value="Cliente" style="text;strokeColor=none;fillColor=none;align=center;verticalAlign=top;spacingLeft=4;spacingRight=4;overflow=hidden;rotatable=0;points=[[0,0.5],[1,0.5]];portConstraint=eastwest;whiteSpace=wrap;html=1;" vertex="1" parent="XxkqTc_sXAHZY6f8xNma-156">
          <mxGeometry y="78" width="110" height="26" as="geometry" />
        </mxCell>
        <mxCell id="XxkqTc_sXAHZY6f8xNma-161" value="" style="group" vertex="1" connectable="0" parent="1">
          <mxGeometry x="510" y="148" width="60" height="60" as="geometry" />
        </mxCell>
        <mxCell id="XxkqTc_sXAHZY6f8xNma-162" value="Clientes" style="whiteSpace=wrap;html=1;aspect=fixed;fillColor=default;rounded=1;" vertex="1" parent="XxkqTc_sXAHZY6f8xNma-161">
          <mxGeometry width="60" height="60" as="geometry" />
        </mxCell>
        <mxCell id="XxkqTc_sXAHZY6f8xNma-163" value="" style="endArrow=open;endFill=1;endSize=12;html=1;rounded=0;exitX=0;exitY=0.5;exitDx=0;exitDy=0;entryX=1;entryY=0.5;entryDx=0;entryDy=0;" edge="1" parent="1" source="XxkqTc_sXAHZY6f8xNma-162" target="XxkqTc_sXAHZY6f8xNma-157">
          <mxGeometry width="160" relative="1" as="geometry">
            <mxPoint x="510" y="178" as="sourcePoint" />
            <mxPoint x="430" y="177.66" as="targetPoint" />
          </mxGeometry>
        </mxCell>
        <mxCell id="XxkqTc_sXAHZY6f8xNma-164" value="Dados do&lt;div&gt;Pagamento&lt;/div&gt;" style="edgeLabel;html=1;align=center;verticalAlign=middle;resizable=0;points=[];" vertex="1" connectable="0" parent="XxkqTc_sXAHZY6f8xNma-163">
          <mxGeometry x="-0.139" y="1" relative="1" as="geometry">
            <mxPoint as="offset" />
          </mxGeometry>
        </mxCell>
      </root>
    </mxGraphModel>
  </diagram>
</mxfile>
